<?xml version="1.0" standalone="no"?><!DOCTYPE svg PUBLIC "-//W3C//DTD SVG 1.1//EN" "http://www.w3.org/Graphics/SVG/1.1/DTD/svg11.dtd"><svg t="1694247050501" class="icon" viewBox="0 0 1024 1024" version="1.1" xmlns="http://www.w3.org/2000/svg" p-id="8652" xmlns:xlink="http://www.w3.org/1999/xlink" width="200" height="200"><path d="M422.59353 228.8c0-112.4-65-164.8-146.8-164.8C180.39353 64 127.99353 136.4 127.99353 226.8v566c0 94.6 50.6 166.8 149.8 166.8 79.6 0 144.8-51.2 144.8-166.8v-153l224.2 276.6c45.4 54.4 144.2 61.4 206.4 0 54-55.2 54.6-134.8 14.8-184.4l-181.6-229.6 149.8-214.8c34.8-49.4 35-126.2-20.8-179.6-60.6-58-164.8-63.2-227.2 25.6L422.59353 370v-141.2z" fill="#bfbfbf" p-id="8653"></path></svg>