<?xml version="1.0" standalone="no"?><!DOCTYPE svg PUBLIC "-//W3C//DTD SVG 1.1//EN" "http://www.w3.org/Graphics/SVG/1.1/DTD/svg11.dtd"><svg t="1694245154165" class="icon" viewBox="0 0 1024 1024" version="1.1" xmlns="http://www.w3.org/2000/svg" p-id="38248" xmlns:xlink="http://www.w3.org/1999/xlink" width="200" height="200"><path d="M512 0C229.162667 0 0 229.162667 0 512s229.162667 512 512 512 512-229.162667 512-512c0.469333-282.837333-229.162667-512-512-512z m29.866667 964.736C291.712 964.736 89.130667 762.154667 89.130667 512S291.712 59.264 541.866667 59.264 994.602667 261.845333 994.602667 512 792.021333 964.736 541.866667 964.736zM300.586667 145.621333C98.048 262.314667 28.970667 520.874667 145.621333 723.413333c116.693333 202.112 375.722667 271.616 577.792 154.965334 202.538667-116.693333 271.616-375.722667 154.965334-577.792C761.685333 98.005333 503.125333 28.928 300.586667 145.621333z m419.114666 666.496a363.690667 363.690667 0 0 1-496.597333-133.034666A363.690667 363.690667 0 0 1 356.138667 182.485333a363.690667 363.690667 0 0 1 496.597333 133.034667c100.309333 173.610667 41.045333 396.245333-133.034667 496.597333zM223.104 344.917333c-92.416 159.616-37.333333 364.032 122.282667 455.978667 159.616 92.416 364.032 37.333333 456.448-122.282667s37.333333-364.032-122.282667-455.978666c-160.085333-91.946667-364.501333-37.333333-456.448 122.282666z m547.925333 282.368a281.728 281.728 0 0 1-385.066666 103.125334c-134.869333-77.952-181.077333-250.154667-103.168-385.066667s250.154667-181.077333 385.066666-103.168c134.912 77.525333 181.12 250.24 103.168 385.109333zM259.968 512c0 139.562667 112.938667 252.501333 252.501333 252.501333s252.501333-112.938667 252.501334-252.501333-112.938667-252.501333-252.501334-252.501333A252.373333 252.373333 0 0 0 259.968 512z m452.736-29.866667c0 110.634667-89.6 200.234667-200.234667 200.234667s-200.234667-89.6-200.234666-200.234667 89.6-200.234667 200.234666-200.234666c110.165333 0 200.234667 89.6 200.234667 200.234666z" p-id="38249" fill="#1296db"></path></svg>