<?xml version="1.0" encoding="utf-8"?>
<!-- Generator: Adobe Illustrator 15.0.0, SVG Export Plug-In . SVG Version: 6.00 Build 0)  -->
<!DOCTYPE svg PUBLIC "-//W3C//DTD SVG 1.1//EN" "http://www.w3.org/Graphics/SVG/1.1/DTD/svg11.dtd">
<svg version="1.1" id="图层_1" xmlns="http://www.w3.org/2000/svg" xmlns:xlink="http://www.w3.org/1999/xlink" x="0px" y="0px"
	 width="700px" height="170px" viewBox="0 0 700 170" enable-background="new 0 0 700 170" xml:space="preserve">
<path fill="#DAD9D9" d="M110.989,48.51c0.262-0.926,1.215-1.457,2.141-1.198c0.923,0.265,1.457,1.224,1.193,2.144
	c-0.264,0.923-1.219,1.454-2.14,1.191C111.261,50.388,110.727,49.427,110.989,48.51"/>
<path fill="#DAD9D9" d="M106.897,50.652c0.248-0.871,1.152-1.373,2.024-1.131c0.873,0.252,1.384,1.16,1.136,2.033
	c-0.25,0.869-1.158,1.376-2.031,1.127C107.153,52.43,106.647,51.525,106.897,50.652"/>
<path fill="#DAD9D9" d="M102.833,52.796c0.222-0.777,1.025-1.224,1.801-1.005c0.781,0.223,1.227,1.026,1.009,1.804
	c-0.22,0.774-1.023,1.225-1.806,1.004C103.063,54.379,102.616,53.57,102.833,52.796"/>
<path fill="#DAD9D9" d="M99.095,53.962c0.203-0.703,0.934-1.11,1.636-0.913c0.704,0.203,1.112,0.932,0.911,1.638
	c-0.197,0.701-0.933,1.109-1.634,0.909C99.309,55.399,98.896,54.662,99.095,53.962"/>
<path fill="#DAD9D9" d="M95.399,54.627c0.192-0.672,0.896-1.064,1.57-0.873c0.668,0.192,1.063,0.894,0.87,1.566
	c-0.189,0.677-0.892,1.067-1.567,0.873C95.602,56.002,95.211,55.299,95.399,54.627"/>
<path fill="#DAD9D9" d="M92.204,55.011c0.16-0.563,0.752-0.892,1.322-0.729c0.57,0.16,0.899,0.751,0.741,1.317
	c-0.161,0.568-0.756,0.9-1.324,0.739C92.37,56.173,92.039,55.58,92.204,55.011"/>
<path fill="#DAD9D9" d="M89.049,55.115c0.135-0.475,0.623-0.748,1.101-0.614c0.478,0.134,0.75,0.629,0.617,1.098
	c-0.136,0.476-0.628,0.751-1.104,0.616C89.187,56.08,88.915,55.587,89.049,55.115"/>
<path fill="#DAD9D9" d="M86.928,54.908c0.107-0.384,0.508-0.607,0.896-0.5c0.388,0.113,0.612,0.513,0.5,0.897
	c-0.106,0.386-0.51,0.611-0.896,0.499C87.043,55.697,86.815,55.296,86.928,54.908"/>
<path fill="#DAD9D9" d="M84.72,54.517c0.098-0.348,0.466-0.555,0.817-0.452c0.355,0.099,0.555,0.467,0.458,0.814
	c-0.1,0.353-0.467,0.556-0.82,0.457C84.824,55.236,84.621,54.869,84.72,54.517"/>
<path fill="#DAD9D9" d="M82.671,54.076c0.082-0.303,0.399-0.476,0.697-0.39c0.3,0.086,0.479,0.4,0.392,0.699
	c-0.086,0.302-0.4,0.474-0.699,0.392C82.758,54.687,82.581,54.377,82.671,54.076"/>
<path fill="#DAD9D9" d="M80.978,53.457c0.072-0.269,0.35-0.419,0.615-0.343c0.269,0.074,0.426,0.354,0.35,0.617
	c-0.075,0.271-0.357,0.423-0.621,0.345C81.051,54.001,80.898,53.728,80.978,53.457"/>
<path fill="#DAD9D9" d="M118.417,40.041c0.367-1.207,1.637-1.895,2.851-1.529c1.205,0.362,1.894,1.637,1.535,2.842
	c-0.367,1.208-1.639,1.895-2.853,1.531C118.742,42.522,118.056,41.248,118.417,40.041"/>
<path fill="#DAD9D9" d="M115.066,45.042c0.313-1.038,1.405-1.628,2.45-1.315c1.037,0.313,1.625,1.408,1.313,2.449
	c-0.312,1.039-1.41,1.627-2.451,1.314C115.34,47.177,114.754,46.081,115.066,45.042"/>
<path fill="#DAD9D9" d="M121.883,33.632c0.412-1.361,1.845-2.134,3.208-1.726c1.367,0.413,2.136,1.847,1.729,3.209
	c-0.414,1.364-1.84,2.137-3.209,1.723C122.245,36.431,121.476,34.994,121.883,33.632"/>
<path fill="#DAD9D9" d="M124.36,25.507c0.51-1.696,2.295-2.655,3.994-2.147c1.694,0.511,2.649,2.298,2.143,3.992
	c-0.506,1.692-2.293,2.656-3.99,2.146C124.813,28.987,123.852,27.199,124.36,25.507"/>
<path fill="#DAD9D9" d="M124.229,15.243c0.609-2.035,2.751-3.186,4.792-2.574c2.039,0.612,3.186,2.753,2.571,4.788
	c-0.605,2.032-2.75,3.187-4.787,2.576C124.769,19.419,123.62,17.277,124.229,15.243"/>
<path fill="#DAD9D9" d="M118.858,4.805c0.73-2.441,3.312-3.83,5.756-3.094c2.455,0.733,3.836,3.311,3.102,5.757
	c-0.735,2.441-3.305,3.83-5.759,3.097C119.509,9.825,118.125,7.248,118.858,4.805"/>
<path fill="#D4B17D" d="M38.022,156.002c0-6.912,5.602-12.512,12.505-12.512c6.906,0,12.505,5.6,12.505,12.512
	c0,6.904-5.599,12.498-12.505,12.498C43.625,168.5,38.022,162.906,38.022,156.002"/>
<path fill="#D4B17D" d="M13.913,142.094c0-5.822,4.714-10.539,10.532-10.539c5.813,0,10.532,4.717,10.532,10.539
	c0,5.809-4.719,10.531-10.532,10.531C18.627,152.625,13.913,147.902,13.913,142.094"/>
<path fill="#D4B17D" d="M4.361,121.902c0-4.688,3.805-8.496,8.494-8.496c4.687,0,8.494,3.809,8.494,8.496
	c0,4.687-3.808,8.494-8.494,8.494C8.166,130.396,4.361,126.59,4.361,121.902"/>
<path fill="#D4B17D" d="M1.5,103.027c0-4.115,3.338-7.457,7.458-7.457s7.459,3.342,7.459,7.457c0,4.119-3.339,7.463-7.459,7.463
	S1.5,107.146,1.5,103.027"/>
<path fill="#D4B17D" d="M5.426,85.07c0-3.787,3.073-6.855,6.863-6.855c3.783,0,6.854,3.068,6.854,6.855s-3.07,6.861-6.854,6.861
	C8.5,91.932,5.426,88.857,5.426,85.07"/>
<path fill="#D4B17D" d="M15.079,70.307c0-3.461,2.803-6.27,6.271-6.27c3.465,0,6.271,2.809,6.271,6.27
	c0,3.464-2.806,6.27-6.271,6.27C17.882,76.577,15.079,73.771,15.079,70.307"/>
<path fill="#D4B17D" d="M27.62,59.647c0-2.966,2.402-5.365,5.371-5.365c2.962,0,5.365,2.399,5.365,5.365
	c0,2.964-2.403,5.368-5.365,5.368C30.022,65.015,27.62,62.611,27.62,59.647"/>
<path fill="#D4B17D" d="M41.297,52.058c0-2.548,2.065-4.613,4.615-4.613s4.615,2.065,4.615,4.613c0,2.55-2.065,4.615-4.615,4.615
	S41.297,54.608,41.297,52.058"/>
<path fill="#D4B17D" d="M54.022,46.817c-0.013-2.207,1.77-4.011,3.977-4.02c2.211-0.013,4.014,1.768,4.026,3.976
	c0.015,2.211-1.771,4.011-3.982,4.023C55.836,50.81,54.036,49.027,54.022,46.817"/>
<path fill="#D4B17D" d="M65.695,44.145c0-1.907,1.544-3.448,3.445-3.448c1.907,0,3.45,1.541,3.45,3.448
	c0,1.899-1.543,3.443-3.45,3.443C67.239,47.588,65.695,46.044,65.695,44.145"/>
<path fill="#D4B17D" d="M76.12,42.043c0-1.645,1.342-2.984,2.99-2.984c1.649,0,2.985,1.339,2.985,2.984
	c0,1.653-1.336,2.988-2.985,2.988C77.462,45.032,76.12,43.697,76.12,42.043"/>
<path fill="#D4B17D" d="M85.584,41.777c-0.187-1.4,0.795-2.691,2.199-2.885c1.402-0.19,2.695,0.795,2.884,2.199
	c0.189,1.404-0.795,2.696-2.196,2.885C87.066,44.164,85.775,43.185,85.584,41.777"/>
<path fill="#D4B17D" d="M94.126,41.713c0-1.294,1.053-2.349,2.352-2.349c1.301,0,2.353,1.055,2.353,2.349
	c0,1.303-1.052,2.351-2.353,2.351C95.179,44.064,94.126,43.016,94.126,41.713"/>
<path fill="#D4B17D" d="M101.976,42.797c0-1.189,0.961-2.154,2.149-2.154c1.195,0,2.153,0.965,2.153,2.154
	c0,1.187-0.958,2.15-2.153,2.15C102.937,44.947,101.976,43.984,101.976,42.797"/>
<path fill="#D4B17D" d="M108.704,44.145c0-1.129,0.914-2.045,2.039-2.045c1.131,0,2.045,0.916,2.045,2.045
	c0,1.126-0.914,2.039-2.045,2.039C109.618,46.184,108.704,45.271,108.704,44.145"/>
<path fill="#D4B17D" d="M114.976,45.606c0-1.089,0.879-1.972,1.97-1.972c1.093,0,1.977,0.883,1.977,1.972
	c0,1.091-0.884,1.976-1.977,1.976C115.854,47.583,114.976,46.697,114.976,45.606"/>
<path fill="#D4B17D" d="M121.041,47.445c0-1.054,0.854-1.907,1.907-1.907c1.051,0,1.906,0.853,1.906,1.907
	c0,1.049-0.855,1.905-1.906,1.905C121.894,49.35,121.041,48.494,121.041,47.445"/>
<path fill="#D4B17D" d="M126.599,49.35c0-0.958,0.772-1.735,1.734-1.735s1.74,0.777,1.74,1.735c0,0.959-0.778,1.736-1.74,1.736
	S126.599,50.309,126.599,49.35"/>
<path fill="#D4B17D" d="M131.635,51.313c0-0.892,0.721-1.612,1.615-1.612c0.896,0,1.616,0.72,1.616,1.612
	c0,0.898-0.72,1.617-1.616,1.617C132.355,52.93,131.635,52.211,131.635,51.313"/>
<path fill="#D4B17D" d="M135.846,53.304c0-0.822,0.66-1.49,1.484-1.49c0.828,0,1.496,0.668,1.496,1.49
	c0,0.819-0.668,1.489-1.496,1.489C136.506,54.793,135.846,54.123,135.846,53.304"/>
<path fill="#D4B17D" d="M139.931,55.251c0-0.73,0.586-1.326,1.319-1.326c0.734,0,1.326,0.596,1.326,1.326s-0.592,1.326-1.326,1.326
	C140.517,56.577,139.931,55.981,139.931,55.251"/>
<path fill="#D4B17D" d="M143.26,56.947c0-0.66,0.535-1.194,1.193-1.194c0.666,0,1.2,0.534,1.2,1.194c0,0.664-0.534,1.198-1.2,1.198
	C143.795,58.145,143.26,57.611,143.26,56.947"/>
<path fill="#D4B17D" d="M146.242,58.697c0-0.59,0.476-1.073,1.063-1.073c0.594,0,1.069,0.483,1.069,1.073
	c0,0.587-0.477,1.066-1.069,1.066C146.717,59.763,146.242,59.284,146.242,58.697"/>
<path fill="#D4B17D" d="M148.823,60.333c0-0.521,0.422-0.943,0.937-0.943c0.524,0,0.944,0.422,0.944,0.943
	c0,0.518-0.42,0.94-0.944,0.94C149.245,61.272,148.823,60.851,148.823,60.333"/>
<path fill="#D4B17D" d="M151.121,62.125c0-0.419,0.347-0.77,0.772-0.77c0.424,0,0.77,0.351,0.77,0.77
	c0,0.428-0.346,0.773-0.77,0.773C151.467,62.898,151.121,62.554,151.121,62.125"/>
<path fill="#D4B17D" d="M152.963,63.409c0-0.354,0.287-0.639,0.642-0.639s0.64,0.285,0.64,0.639c0,0.353-0.284,0.645-0.64,0.645
	C153.25,64.054,152.963,63.762,152.963,63.409"/>
<polygon fill="#DAD9D9" points="79.333,123.662 50.787,123.662 50.787,80.562 79.333,80.562 79.333,88.561 58.958,88.561 
	58.958,98.111 79.333,98.111 79.333,106.27 58.958,106.27 58.958,115.631 79.333,115.631 "/>
<path fill="#DAD9D9" d="M128.502,123.662h-8.494l-3.375-8.881H99.036l-3.521,8.881H87.02l16.599-43.101h8.316L128.502,123.662z
	 M113.554,106.811l-5.721-14.85l-5.749,14.85H113.554z"/>
<polygon fill="#DAD9D9" points="186.549,123.662 178.609,123.662 173.979,96.443 164.82,123.662 157.592,123.662 148.549,96.443 
	143.834,123.662 135.806,123.662 143.249,80.562 151.275,80.562 161.249,110.621 171.373,80.562 179.282,80.562 "/>
<path fill="#DAD9D9" d="M285.933,70.014l10.729-60.845h45.742l-1.815,10.293h-33.286l-2.378,13.489h30.971l-1.808,10.251h-30.971
	l-2.92,16.56h34.464l-1.808,10.251H285.933z"/>
<path fill="#DAD9D9" d="M355.619,70.014L345.38,25.937h12.415l4.449,22.495l1.115,7.512c0.982-1.909,1.611-3.168,1.887-3.777
	c0.612-1.245,1.252-2.49,1.921-3.735l12.468-22.495h12.161l-25.53,44.077H355.619z"/>
<path fill="#DAD9D9" d="M392.521,47.353c0.684-3.874,2.313-7.623,4.888-11.248c2.575-3.625,5.805-6.392,9.69-8.301
	c3.885-1.909,8.016-2.864,12.393-2.864c6.76,0,11.92,2.166,15.477,6.495c3.556,4.331,4.752,9.802,3.586,16.415
	c-1.176,6.668-4.332,12.196-9.468,16.581c-5.136,4.386-11.013,6.578-17.634,6.578c-4.096,0-7.842-0.913-11.237-2.739
	c-3.395-1.826-5.749-4.503-7.063-8.031C391.84,56.712,391.629,52.417,392.521,47.353z M404.531,47.976
	c-0.771,4.372-0.309,7.72,1.385,10.044c1.695,2.324,4.084,3.486,7.17,3.486s5.879-1.162,8.379-3.486s4.141-5.7,4.922-10.127
	c0.761-4.316,0.301-7.637-1.38-9.961c-1.68-2.324-4.063-3.486-7.149-3.486s-5.885,1.162-8.399,3.486
	C406.945,40.256,405.303,43.604,404.531,47.976z"/>
<path fill="#DAD9D9" d="M443.904,70.014l10.728-60.845h11.825l-10.729,60.845H443.904z"/>
<path fill="#DAD9D9" d="M497.263,70.014l1.164-6.599c-2.043,2.352-4.509,4.206-7.398,5.562s-5.809,2.034-8.754,2.034
	c-3.002,0-5.58-0.65-7.735-1.951c-2.156-1.3-3.559-3.126-4.21-5.479c-0.652-2.352-0.61-5.603,0.121-9.753l4.918-27.891h11.824
	l-3.571,20.254c-1.093,6.198-1.546,9.996-1.356,11.393c0.188,1.398,0.786,2.505,1.792,3.32c1.006,0.817,2.393,1.225,4.16,1.225
	c2.021,0,3.927-0.546,5.718-1.64c1.791-1.092,3.125-2.448,4-4.067c0.874-1.618,1.868-5.582,2.98-11.891l3.278-18.594h11.824
	l-7.772,44.077H497.263z"/>
<path fill="#DAD9D9" d="M548.757,25.937l-1.64,9.297h-8.08l-3.132,17.764c-0.635,3.597-0.927,5.693-0.878,6.288
	c0.05,0.595,0.313,1.086,0.792,1.473c0.479,0.388,1.112,0.581,1.897,0.581c1.095,0,2.744-0.374,4.952-1.121l-0.585,9.048
	c-2.955,1.162-6.172,1.743-9.65,1.743c-2.132,0-3.991-0.353-5.577-1.059c-1.588-0.705-2.682-1.618-3.284-2.739
	c-0.602-1.12-0.889-2.635-0.86-4.544c-0.014-1.355,0.344-4.095,1.071-8.218l3.388-19.216h-5.429l1.64-9.297h5.429l1.544-8.757
	l13.066-6.807l-2.744,15.564H548.757z"/>
<path fill="#DAD9D9" d="M558.016,19.96l1.902-10.791h11.825l-1.902,10.791H558.016z M549.189,70.014l7.772-44.077h11.825
	l-7.772,44.077H549.189z"/>
<path fill="#DAD9D9" d="M574.395,47.353c0.683-3.874,2.313-7.623,4.888-11.248c2.574-3.625,5.805-6.392,9.69-8.301
	c3.885-1.909,8.017-2.864,12.393-2.864c6.761,0,11.92,2.166,15.477,6.495c3.556,4.331,4.752,9.802,3.586,16.415
	c-1.176,6.668-4.332,12.196-9.468,16.581c-5.136,4.386-11.014,6.578-17.635,6.578c-4.096,0-7.841-0.913-11.236-2.739
	c-3.395-1.826-5.749-4.503-7.063-8.031C573.713,56.712,573.502,52.417,574.395,47.353z M586.405,47.976
	c-0.771,4.372-0.31,7.72,1.384,10.044c1.694,2.324,4.085,3.486,7.171,3.486s5.878-1.162,8.378-3.486s4.141-5.7,4.922-10.127
	c0.761-4.316,0.3-7.637-1.38-9.961s-4.063-3.486-7.148-3.486s-5.886,1.162-8.4,3.486C588.817,40.256,587.176,43.604,586.405,47.976z
	"/>
<path fill="#DAD9D9" d="M666.428,70.014h-11.824l3.967-22.495c0.839-4.759,1.129-7.837,0.87-9.234
	c-0.258-1.397-0.887-2.483-1.887-3.258c-0.999-0.774-2.299-1.162-3.897-1.162c-2.049,0-3.983,0.554-5.806,1.66
	c-1.823,1.107-3.196,2.573-4.122,4.399c-0.925,1.826-1.821,5.202-2.689,10.127l-3.521,19.963h-11.825l7.772-44.077h10.983
	l-1.142,6.475c4.776-4.98,10.126-7.471,16.046-7.471c2.608,0,4.911,0.464,6.908,1.391c1.996,0.927,3.422,2.11,4.276,3.548
	c0.854,1.439,1.337,3.071,1.451,4.897c0.112,1.826-0.131,4.441-0.731,7.844L666.428,70.014z"/>
<path fill="#D4B17D" d="M322.624,143.537c2.677,2.158,5.699,3.873,9.066,5.146l-6.117,8.674c-1.782-0.554-3.485-1.314-5.109-2.283
	c-0.359-0.193-2.805-1.992-7.339-5.395c-4.347,1.742-8.976,2.614-13.885,2.614c-9.482,0-16.424-2.753-20.826-8.259
	s-5.724-13.24-3.967-23.201c1.751-9.934,5.807-17.66,12.167-23.18c6.36-5.52,14.154-8.28,23.384-8.28
	c9.145,0,15.911,2.761,20.295,8.28c4.385,5.52,5.702,13.246,3.951,23.18c-0.927,5.258-2.485,9.878-4.675,13.862
	C327.911,137.74,325.595,140.688,322.624,143.537z M313.831,136.605c1.926-1.854,3.521-4.095,4.784-6.724
	c1.263-2.628,2.195-5.645,2.795-9.048c1.239-7.027,0.593-12.277-1.937-15.75c-2.53-3.473-6.333-5.209-11.411-5.209
	s-9.501,1.742-13.272,5.229s-6.273,8.73-7.507,15.73c-1.254,7.111-0.614,12.43,1.92,15.959c2.534,3.527,6.213,5.291,11.039,5.291
	c1.795,0,3.544-0.291,5.246-0.871c-2.237-1.633-4.58-2.906-7.028-3.818l4.73-7.015C307.04,131.764,310.587,133.839,313.831,136.605z
	"/>
<path fill="#D4B17D" d="M367.973,151.256l1.164-6.599c-2.043,2.353-4.508,4.206-7.398,5.562s-5.809,2.033-8.754,2.033
	c-3.002,0-5.58-0.65-7.735-1.95s-3.559-3.126-4.21-5.479c-0.652-2.352-0.611-5.603,0.121-9.753l4.918-27.891h11.824l-3.571,20.254
	c-1.093,6.197-1.546,9.996-1.356,11.393c0.188,1.397,0.785,2.504,1.792,3.32s2.394,1.225,4.161,1.225
	c2.02,0,3.926-0.547,5.717-1.641c1.792-1.092,3.125-2.447,4-4.066c0.874-1.619,1.867-5.582,2.98-11.891l3.278-18.594h11.824
	l-7.772,44.076H367.973z"/>
<path fill="#D4B17D" d="M405.439,120.627l-10.395-1.91c1.958-4.26,4.59-7.414,7.897-9.463c3.307-2.047,7.862-3.07,13.671-3.07
	c5.273,0,9.092,0.615,11.457,1.846c2.363,1.232,3.904,2.796,4.623,4.691c0.717,1.895,0.63,5.374-0.264,10.438l-2.527,13.613
	c-0.683,3.874-0.996,6.73-0.941,8.57c0.054,1.841,0.414,3.813,1.082,5.914h-11.699c-0.173-0.773-0.348-1.922-0.529-3.444
	c-0.074-0.691-0.133-1.147-0.178-1.37c-2.362,1.938-4.779,3.391-7.249,4.358c-2.472,0.968-5.013,1.452-7.62,1.452
	c-4.602,0-8.012-1.23-10.227-3.693c-2.218-2.463-2.994-5.575-2.33-9.338c0.438-2.49,1.433-4.711,2.984-6.662
	c1.549-1.951,3.502-3.445,5.859-4.482s5.652-1.943,9.885-2.719c5.707-1.023,9.705-1.978,11.994-2.863l0.205-1.162
	c0.395-2.241,0.115-3.84-0.839-4.793c-0.954-0.955-2.987-1.433-6.103-1.433c-2.104,0-3.816,0.409-5.139,1.224
	C407.736,117.147,406.529,118.579,405.439,120.627z M419.594,130.09c-1.604,0.498-4.106,1.093-7.511,1.784
	c-3.404,0.692-5.671,1.37-6.798,2.034c-1.732,1.078-2.746,2.448-3.038,4.108c-0.288,1.633,0.081,3.044,1.104,4.233
	c1.025,1.189,2.49,1.785,4.398,1.785c2.132,0,4.288-0.691,6.468-2.076c1.617-1.051,2.783-2.338,3.501-3.859
	c0.482-0.996,0.973-2.891,1.465-5.686L419.594,130.09z"/>
<path fill="#D4B17D" d="M479.781,151.256h-11.824l3.967-22.494c0.839-4.76,1.129-7.838,0.87-9.234
	c-0.258-1.397-0.887-2.484-1.887-3.259c-0.999-0.774-2.299-1.162-3.897-1.162c-2.049,0-3.983,0.554-5.806,1.66
	c-1.823,1.106-3.196,2.573-4.122,4.399c-0.925,1.826-1.821,5.202-2.689,10.127l-3.52,19.963h-11.826l7.772-44.076h10.983
	l-1.142,6.475c4.776-4.98,10.126-7.471,16.046-7.471c2.608,0,4.911,0.463,6.908,1.391c1.996,0.927,3.422,2.109,4.276,3.548
	s1.337,3.071,1.451,4.897c0.112,1.826-0.131,4.441-0.731,7.844L479.781,151.256z"/>
<path fill="#D4B17D" d="M520.04,107.18l-1.64,9.297h-8.08l-3.132,17.764c-0.635,3.597-0.927,5.693-0.877,6.287
	c0.049,0.596,0.313,1.086,0.791,1.474c0.479,0.388,1.112,0.581,1.897,0.581c1.095,0,2.744-0.373,4.952-1.121l-0.585,9.049
	c-2.955,1.162-6.171,1.742-9.649,1.742c-2.132,0-3.992-0.352-5.578-1.059c-1.588-0.705-2.682-1.617-3.284-2.738
	c-0.601-1.121-0.889-2.636-0.86-4.545c-0.014-1.355,0.344-4.095,1.071-8.218l3.388-19.216h-5.429l1.64-9.297h5.429l1.544-8.758
	l13.066-6.807l-2.744,15.564H520.04z"/>
<path fill="#DAD9D9" d="M532.014,151.256l-3.999-60.844h12.75l1.931,41.794l18.647-41.794h14.812l3.322,42.5l16.961-42.5h12.54
	l-25.709,60.844h-13.214l-4.266-45.488l-20.267,45.488H532.014z"/>
<path fill="#DAD9D9" d="M631.315,137.229l11.439,1.95c-2.267,4.261-5.23,7.506-8.891,9.733c-3.661,2.227-7.947,3.34-12.855,3.34
	c-7.771,0-13.081-2.504-15.93-7.512c-2.238-4.012-2.818-9.075-1.739-15.19c1.288-7.305,4.231-13.024,8.832-17.161
	c4.602-4.137,9.861-6.205,15.781-6.205c6.648,0,11.513,2.165,14.593,6.494c3.079,4.332,3.747,10.965,2.003,19.902h-29.625
	c-0.525,3.459-0.047,6.149,1.438,8.072c1.484,1.924,3.587,2.885,6.309,2.885c1.852,0,3.496-0.498,4.935-1.494
	S630.28,139.441,631.315,137.229z M634.067,125.441c0.511-3.376,0.08-5.941-1.293-7.699c-1.374-1.757-3.267-2.636-5.679-2.636
	c-2.582,0-4.878,0.927-6.887,2.78c-2.011,1.854-3.282,4.373-3.816,7.555H634.067z"/>
<path fill="#DAD9D9" d="M650.387,151.256l10.729-60.844h11.825l-3.863,21.914c4.368-4.096,9.05-6.143,14.044-6.143
	c5.442,0,9.602,1.943,12.479,5.83c2.877,3.889,3.674,9.471,2.391,16.748c-1.327,7.525-4.166,13.322-8.516,17.39
	c-4.351,4.067-9.12,6.101-14.31,6.101c-2.553,0-4.96-0.629-7.221-1.889c-2.261-1.258-4.072-3.119-5.434-5.582l-1.142,6.475H650.387z
	 M666.183,128.264c-0.805,4.564-0.672,7.941,0.401,10.127c1.502,3.099,3.95,4.648,7.345,4.648c2.609,0,5.026-1.1,7.252-3.301
	c2.225-2.199,3.755-5.664,4.589-10.396c0.888-5.035,0.603-8.666-0.856-10.895c-1.459-2.227-3.633-3.341-6.521-3.341
	c-2.834,0-5.383,1.087-7.645,3.259C668.484,120.537,666.963,123.836,666.183,128.264z"/>
</svg>
